{"glyphs":{"0":{"ha":785,"x_min":64,"x_max":722,"o":"m 199 517 q 218 296 199 389 q 281 143 236 202 q 395 84 326 84 q 486 119 448 84 q 546 218 525 155 q 576 354 567 281 q 586 517 586 427 q 538 833 586 713 q 392 952 491 952 q 246 834 293 952 q 199 517 199 716 m 64 517 q 92 774 64 665 q 169 944 121 884 q 273 1031 217 1004 q 392 1059 328 1059 q 635 918 548 1059 q 722 517 722 777 q 640 124 722 273 q 395 -24 557 -24 q 275 4 331 -24 q 170 94 218 33 q 92 263 121 155 q 64 517 64 372 z "},"1":{"ha":785,"x_min":132,"x_max":496,"o":"m 132 770 l 132 871 l 175 871 q 338 909 293 871 q 382 1016 382 948 l 382 1046 l 496 1046 l 496 -14 l 361 -14 l 361 770 l 132 770 z "},"2":{"ha":785,"x_min":68,"x_max":696,"o":"m 68 793 q 178 988 98 917 q 389 1059 259 1059 q 610 982 524 1059 q 696 769 696 905 q 536 461 696 614 q 482 410 522 448 q 430 359 442 372 q 387 317 418 347 q 344 273 355 286 q 311 233 332 259 q 278 191 289 208 q 255 152 267 174 q 233 109 243 130 l 694 109 l 694 0 l 75 0 q 97 117 75 57 q 146 220 119 176 q 231 328 172 263 q 323 423 290 392 q 431 525 357 454 q 560 772 560 648 q 513 905 560 857 q 387 952 465 952 q 255 901 307 952 q 182 762 203 850 l 68 793 z "},"3":{"ha":785,"x_min":47,"x_max":722,"o":"m 47 189 l 156 231 q 376 84 227 84 q 526 138 465 84 q 586 290 586 191 q 519 436 586 382 q 355 490 453 490 q 269 486 317 490 l 269 594 q 350 591 300 591 q 490 641 434 591 q 545 777 545 690 q 496 903 545 853 q 370 952 448 952 q 183 798 244 952 l 75 833 q 182 996 106 933 q 377 1059 259 1059 q 599 983 517 1059 q 681 789 681 906 q 635 640 681 703 q 524 548 589 576 q 662 460 602 525 q 722 290 722 395 q 627 58 722 141 q 377 -24 533 -24 q 168 37 255 -24 q 47 189 81 99 z "},"4":{"ha":785,"x_min":31,"x_max":760,"o":"m 31 334 l 500 1047 l 617 1047 l 617 336 l 760 336 l 760 228 l 617 228 l 617 -12 l 486 -12 l 486 228 l 31 228 l 31 334 m 159 336 l 486 336 l 486 694 q 491 850 486 776 l 486 850 q 400 712 486 850 l 159 336 z "},"5":{"ha":785,"x_min":61,"x_max":707,"o":"m 61 176 l 171 216 q 251 120 199 156 q 366 84 302 84 q 517 148 463 84 q 571 313 571 212 q 513 481 571 416 q 362 545 454 545 q 174 453 254 545 l 92 484 l 146 1035 l 647 1035 l 647 926 l 267 926 l 232 600 q 408 652 308 652 q 623 562 540 652 q 707 317 707 471 q 621 76 707 176 q 369 -24 536 -24 q 180 31 258 -24 q 61 176 102 85 z "},"6":{"ha":785,"x_min":66,"x_max":728,"o":"m 206 324 q 261 151 206 218 q 403 84 316 84 q 541 150 487 84 q 595 324 595 216 q 541 501 595 435 q 400 567 486 567 q 262 498 317 567 q 206 324 206 429 m 66 464 q 87 682 66 579 q 149 871 107 784 q 265 1008 191 958 q 437 1059 339 1059 q 719 864 627 1059 l 614 827 q 437 952 544 952 q 216 658 262 952 q 199 534 202 583 q 284 636 227 597 q 419 675 342 675 q 642 576 556 675 q 728 326 728 476 q 643 75 728 175 q 408 -24 557 -24 q 163 85 251 -24 q 66 464 66 201 z "},"7":{"ha":785,"x_min":58,"x_max":704,"o":"m 58 922 l 58 1035 l 704 1035 l 704 945 q 323 -12 439 517 l 187 -12 q 551 922 282 452 l 58 922 z "},"8":{"ha":785,"x_min":54,"x_max":734,"o":"m 222 776 q 271 650 222 697 q 392 602 320 602 q 515 651 467 602 q 563 776 563 700 q 515 902 563 852 q 392 952 467 952 q 269 901 316 952 q 222 776 222 849 m 54 279 q 111 456 54 388 q 247 551 167 524 q 87 783 87 624 q 173 980 87 901 q 392 1059 259 1059 q 610 981 522 1059 q 699 783 699 902 q 652 637 699 694 q 538 551 606 579 q 677 454 621 524 q 734 278 734 385 q 637 60 734 145 q 392 -24 541 -24 q 152 58 250 -24 q 54 279 54 140 m 190 286 q 247 141 190 198 q 392 84 304 84 q 538 142 480 84 q 597 286 597 199 q 538 434 597 373 q 392 495 479 495 q 248 435 307 495 q 190 286 190 374 z "},"9":{"ha":785,"x_min":54,"x_max":709,"o":"m 187 712 q 244 538 187 605 q 380 472 301 472 q 517 539 463 472 q 572 711 572 606 q 519 882 572 812 q 380 952 465 952 q 242 885 297 952 q 187 712 187 818 m 60 175 l 168 212 q 243 120 195 156 q 350 84 290 84 q 458 118 412 84 q 530 212 505 152 q 567 341 555 271 q 581 492 579 411 q 498 403 555 441 q 362 365 442 365 q 145 458 236 365 q 54 711 54 552 q 147 962 54 864 q 380 1059 240 1059 q 581 983 499 1059 q 690 784 663 906 q 709 568 709 700 q 622 133 709 290 q 349 -24 534 -24 q 169 36 245 -24 q 60 175 92 96 z "}," ":{"ha":339,"x_min":0,"x_max":0,"o":""},"!":{"ha":437,"x_min":123,"x_max":313,"o":"m 123 -11 l 123 161 l 313 161 l 313 -11 l 123 -11 m 279 289 l 159 289 l 146 1038 l 290 1038 l 279 289 z "},"\"":{"ha":719,"x_min":94,"x_max":671,"o":"m 388 746 l 506 1157 l 671 1157 l 491 746 l 388 746 m 94 746 l 212 1157 l 378 1157 l 197 746 l 94 746 z "},"#":{"ha":1009,"x_min":69,"x_max":943,"o":"m 69 275 l 69 374 l 245 374 l 281 632 l 113 632 l 113 730 l 293 730 l 330 1002 l 446 1002 l 410 730 l 663 730 l 699 1002 l 815 1002 l 779 730 l 943 730 l 943 632 l 766 632 l 732 374 l 899 374 l 899 275 l 720 275 l 684 3 l 564 3 l 602 275 l 350 275 l 315 3 l 195 3 l 232 275 l 69 275 m 363 374 l 614 374 l 650 632 l 396 632 l 363 374 z "},"$":{"ha":823,"x_min":79,"x_max":739,"o":"m 79 198 l 176 247 q 283 146 217 184 q 418 109 349 109 q 553 150 499 109 q 608 273 608 191 q 595 332 608 305 q 569 377 583 359 q 519 415 555 395 q 460 446 483 435 q 384 479 438 457 q 302 514 330 502 q 155 620 203 559 q 107 773 107 681 q 172 938 107 863 q 355 1028 237 1013 l 355 1143 l 475 1143 l 475 1027 q 620 970 551 1021 q 715 859 689 918 l 616 811 q 415 925 536 925 q 286 882 334 925 q 237 772 237 838 q 249 705 237 732 q 304 650 260 678 q 367 614 347 623 q 465 572 387 605 q 496 559 486 563 q 585 517 548 538 q 661 463 623 495 q 719 385 699 431 q 739 283 739 339 q 665 91 739 164 q 475 3 591 18 l 475 -104 l 355 -104 l 355 5 q 197 65 275 12 q 79 198 118 118 z "},"%":{"ha":1382,"x_min":95,"x_max":1289,"o":"m 747 229 q 823 412 747 340 q 1019 483 899 483 q 1212 412 1135 483 q 1289 229 1289 340 q 1212 45 1289 115 q 1019 -24 1135 -24 q 825 47 902 -24 q 747 229 747 118 m 869 229 q 913 117 869 159 q 1019 75 958 75 q 1123 117 1080 75 q 1166 229 1166 159 q 1124 342 1166 300 q 1019 384 1081 384 q 913 342 956 384 q 869 229 869 300 m 95 806 q 170 988 95 917 q 365 1059 245 1059 q 559 988 483 1059 q 635 806 635 917 q 558 623 635 693 q 365 552 481 552 q 172 623 248 552 q 95 806 95 693 m 217 806 q 260 693 217 735 q 365 651 304 651 q 470 694 426 651 q 514 806 514 736 q 471 918 514 876 q 365 960 429 960 q 260 918 302 960 q 217 806 217 876 m 256 -3 l 994 1038 l 1127 1038 l 388 -3 l 256 -3 z "},"&":{"ha":920,"x_min":77,"x_max":916,"o":"m 209 266 q 264 133 209 182 q 406 84 319 84 q 617 194 522 84 l 373 521 q 209 266 209 404 m 77 264 q 308 612 77 463 q 254 688 267 667 q 225 747 240 708 q 210 825 210 785 q 279 981 210 918 q 471 1044 349 1044 q 642 994 572 1044 q 749 864 712 944 l 651 821 q 580 903 625 868 q 480 937 534 937 q 378 904 415 937 q 342 821 342 871 q 418 657 342 769 q 682 300 494 545 q 739 490 722 382 l 857 469 q 762 197 834 320 l 916 0 l 764 0 l 688 98 q 401 -24 570 -24 q 162 58 247 -24 q 77 264 77 141 z "},"'":{"ha":445,"x_min":111,"x_max":395,"o":"m 111 746 l 228 1157 l 395 1157 l 214 746 l 111 746 z "},"(":{"ha":625,"x_min":199,"x_max":532,"o":"m 199 496 q 439 1199 199 890 l 532 1147 q 475 1058 491 1082 q 424 962 460 1034 q 372 833 388 890 q 342 686 357 777 q 327 496 327 595 q 343 282 327 380 q 394 102 359 184 q 456 -30 429 20 q 532 -153 484 -80 l 439 -206 q 264 105 330 -61 q 199 496 199 271 z "},")":{"ha":625,"x_min":94,"x_max":427,"o":"m 94 -153 q 248 147 197 -1 q 298 496 298 296 q 282 710 298 613 q 232 889 266 807 q 170 1023 198 971 q 94 1147 141 1074 l 187 1199 q 427 496 427 887 q 362 104 427 271 q 187 -206 297 -62 l 94 -153 z "},"*":{"ha":785,"x_min":30,"x_max":754,"o":"m 30 579 l 76 685 l 342 582 l 331 849 l 453 849 l 444 582 l 709 685 l 754 579 l 472 484 l 684 252 l 587 182 l 392 430 l 197 182 l 102 252 l 313 484 l 30 579 z "},"+":{"ha":785,"x_min":38,"x_max":746,"o":"m 38 456 l 38 568 l 330 568 l 330 857 l 454 857 l 454 568 l 746 568 l 746 456 l 454 456 l 454 156 l 330 156 l 330 456 l 38 456 z "},",":{"ha":490,"x_min":65,"x_max":350,"o":"m 65 -233 l 183 178 l 350 178 l 170 -233 l 65 -233 z "},"-":{"ha":785,"x_min":66,"x_max":718,"o":"m 66 456 l 66 568 l 718 568 l 718 456 l 66 456 z "},".":{"ha":490,"x_min":151,"x_max":340,"o":"m 151 0 l 151 178 l 340 178 l 340 0 l 151 0 z "},"/":{"ha":494,"x_min":-19,"x_max":514,"o":"m -19 -77 l 380 1100 l 514 1100 l 115 -77 l -19 -77 z "},":":{"ha":490,"x_min":151,"x_max":340,"o":"m 151 107 l 151 285 l 340 285 l 340 107 l 151 107 m 151 656 l 151 834 l 340 834 l 340 656 l 151 656 z "},";":{"ha":490,"x_min":65,"x_max":350,"o":"m 65 -126 l 183 285 l 350 285 l 170 -126 l 65 -126 m 152 656 l 152 834 l 343 834 l 343 656 l 152 656 z "},"<":{"ha":785,"x_min":68,"x_max":716,"o":"m 68 442 l 68 560 l 647 991 l 716 895 l 194 500 l 716 106 l 647 9 l 68 442 z "},"=":{"ha":785,"x_min":66,"x_max":718,"o":"m 66 316 l 66 429 l 718 429 l 718 316 l 66 316 m 66 595 l 66 708 l 718 708 l 718 595 l 66 595 z "},">":{"ha":785,"x_min":71,"x_max":719,"o":"m 137 9 l 71 106 l 591 500 l 71 895 l 137 991 l 719 560 l 719 442 l 137 9 z "},"?":{"ha":788,"x_min":87,"x_max":690,"o":"m 87 827 q 202 996 121 932 q 396 1061 283 1061 q 610 983 529 1061 q 690 777 690 906 q 665 663 690 713 q 604 578 640 613 q 532 509 568 543 q 471 427 496 475 q 446 321 446 380 l 446 282 l 315 282 l 315 331 q 340 452 315 397 q 400 542 365 506 q 471 611 435 578 q 531 688 506 644 q 556 781 556 731 q 513 903 556 857 q 397 949 471 949 q 203 788 269 949 l 87 827 m 285 -11 l 285 161 l 476 161 l 476 -11 l 285 -11 z "},"@":{"ha":1325,"x_min":77,"x_max":1248,"o":"m 77 487 q 248 912 77 747 q 692 1077 419 1077 q 1093 932 937 1077 q 1248 560 1248 787 q 1164 261 1248 359 q 971 163 1080 163 q 865 203 910 163 q 814 304 819 243 l 812 304 q 734 208 791 251 q 605 164 678 164 q 437 240 505 164 q 370 441 370 316 q 457 703 370 608 q 663 799 544 799 q 818 716 764 799 l 823 787 l 922 787 l 902 385 q 921 292 899 324 q 979 260 943 260 q 1090 338 1046 260 q 1135 552 1135 415 q 1015 863 1135 743 q 690 982 894 982 q 332 844 472 982 q 191 487 191 705 q 326 125 191 258 q 675 -7 461 -7 q 978 35 833 -7 l 998 -53 q 675 -102 854 -102 q 241 62 404 -102 q 77 487 77 225 m 490 442 q 526 317 490 368 q 620 267 562 267 q 743 336 686 267 q 799 562 799 406 q 767 661 799 620 q 670 703 735 703 q 546 631 602 703 q 490 442 490 560 z "},"A":{"ha":907,"x_min":-5,"x_max":913,"o":"m 273 389 l 635 389 l 525 711 q 493 807 517 735 q 458 911 469 879 l 450 911 q 417 811 441 882 q 384 711 393 741 l 273 389 m -5 0 l 377 1035 l 532 1035 l 913 0 l 770 0 l 673 283 l 236 283 l 137 0 l -5 0 z "},"B":{"ha":937,"x_min":134,"x_max":872,"o":"m 134 0 l 134 1035 l 519 1035 q 754 962 674 1035 q 834 766 834 890 q 794 629 834 686 q 692 544 754 572 q 819 454 766 521 q 872 293 872 387 q 792 85 872 171 q 570 0 712 0 l 134 0 m 266 113 l 541 113 q 680 160 624 113 q 736 292 736 208 q 682 425 736 372 q 536 477 628 477 l 266 477 l 266 113 m 266 587 l 500 587 q 642 630 586 587 q 699 757 699 673 q 652 877 699 831 q 506 922 606 922 l 266 922 l 266 587 z "},"C":{"ha":921,"x_min":66,"x_max":886,"o":"m 66 517 q 191 913 66 768 q 514 1059 315 1059 q 727 991 639 1059 q 859 825 815 922 l 746 787 q 511 947 655 947 q 286 829 369 947 q 202 517 202 712 q 287 204 202 319 q 511 90 372 90 q 668 140 601 90 q 768 266 735 191 l 886 228 q 835 141 865 182 q 760 61 804 100 q 652 -1 715 22 q 514 -24 589 -24 q 192 119 317 -24 q 66 517 66 263 z "},"D":{"ha":967,"x_min":134,"x_max":906,"o":"m 134 0 l 134 1035 l 423 1035 q 778 902 650 1035 q 906 517 906 769 q 784 140 906 281 q 420 0 662 0 l 134 0 m 266 111 l 403 111 q 673 208 575 111 q 770 517 770 305 q 406 922 770 922 l 266 922 l 266 111 z "},"E":{"ha":853,"x_min":134,"x_max":804,"o":"m 134 0 l 134 1035 l 792 1035 l 792 922 l 266 922 l 266 590 l 741 590 l 741 480 l 266 480 l 266 113 l 804 113 l 804 0 l 134 0 z "},"F":{"ha":791,"x_min":134,"x_max":773,"o":"m 134 0 l 134 1035 l 773 1035 l 773 922 l 266 922 l 266 576 l 720 576 l 720 465 l 266 465 l 266 0 l 134 0 z "},"G":{"ha":1001,"x_min":66,"x_max":913,"o":"m 66 517 q 189 907 66 755 q 522 1059 312 1059 q 659 1036 595 1059 q 764 976 722 1013 q 833 903 807 939 q 878 830 860 867 l 765 792 q 522 947 669 947 q 286 829 370 947 q 202 517 202 711 q 289 203 202 317 q 517 90 376 90 q 712 169 643 90 q 784 361 781 248 q 785 406 784 373 q 785 453 785 439 l 506 453 l 506 566 l 913 566 l 913 0 l 819 0 l 808 136 q 513 -24 724 -24 q 191 121 316 -24 q 66 517 66 267 z "},"H":{"ha":1008,"x_min":134,"x_max":875,"o":"m 134 0 l 134 1035 l 266 1035 l 266 587 l 743 587 l 743 1035 l 875 1035 l 875 0 l 743 0 l 743 477 l 266 477 l 266 0 l 134 0 z "},"I":{"ha":399,"x_min":134,"x_max":266,"o":"m 134 0 l 134 1035 l 266 1035 l 266 0 l 134 0 z "},"J":{"ha":707,"x_min":15,"x_max":574,"o":"m 15 175 l 129 220 q 189 125 146 161 q 288 90 231 90 q 441 307 441 90 l 441 1035 l 574 1035 l 574 288 q 500 56 574 136 q 290 -24 427 -24 q 111 32 179 -24 q 15 175 42 88 z "},"K":{"ha":903,"x_min":134,"x_max":905,"o":"m 134 0 l 134 1035 l 266 1035 l 266 515 l 269 515 l 715 1035 l 887 1035 l 491 586 l 905 0 l 742 0 l 407 491 l 266 331 l 266 0 l 134 0 z "},"L":{"ha":761,"x_min":134,"x_max":750,"o":"m 134 0 l 134 1035 l 266 1035 l 266 113 l 750 113 l 750 0 l 134 0 z "},"M":{"ha":1222,"x_min":134,"x_max":1090,"o":"m 134 0 l 134 1035 l 301 1035 l 513 505 q 568 351 534 448 q 608 240 602 254 l 613 240 q 712 505 620 260 l 921 1035 l 1090 1035 l 1090 0 l 959 0 l 959 545 q 974 860 959 675 l 968 860 l 909 694 l 666 71 l 559 71 l 316 694 l 254 861 l 248 861 q 266 545 266 650 l 266 0 l 134 0 z "},"N":{"ha":1015,"x_min":134,"x_max":880,"o":"m 134 0 l 134 1035 l 279 1035 l 637 406 l 758 191 l 766 191 q 749 486 749 317 l 749 1035 l 880 1035 l 880 0 l 735 0 l 377 628 l 256 842 l 251 842 q 266 548 266 701 l 266 0 l 134 0 z "},"O":{"ha":1001,"x_min":66,"x_max":936,"o":"m 66 517 q 185 910 66 761 q 502 1059 304 1059 q 819 910 701 1059 q 936 515 936 761 q 817 122 936 269 q 502 -24 699 -24 q 185 123 304 -24 q 66 517 66 270 m 202 517 q 283 205 202 320 q 502 90 363 90 q 720 203 639 90 q 800 515 800 316 q 722 829 800 712 q 502 947 643 947 q 283 830 363 947 q 202 517 202 713 z "},"P":{"ha":913,"x_min":134,"x_max":861,"o":"m 134 0 l 134 1035 l 529 1035 q 772 951 684 1035 q 861 727 861 867 q 770 502 861 585 q 530 419 680 419 l 266 419 l 266 0 l 134 0 m 266 530 l 511 530 q 669 580 613 530 q 726 727 726 629 q 670 872 726 822 q 509 922 614 922 l 266 922 l 266 530 z "},"Q":{"ha":1001,"x_min":66,"x_max":936,"o":"m 66 515 q 186 911 66 762 q 502 1059 305 1059 q 818 909 700 1059 q 936 515 936 760 q 819 124 936 273 q 502 -24 701 -24 q 184 124 302 -24 q 66 515 66 273 m 202 515 q 283 204 202 319 q 502 90 363 90 q 720 204 639 90 q 800 515 800 319 q 720 832 800 718 q 502 947 639 947 q 283 831 365 947 q 202 515 202 715 m 473 319 l 555 392 l 936 1 l 854 -71 l 473 319 z "},"R":{"ha":936,"x_min":134,"x_max":920,"o":"m 266 548 l 524 548 q 675 599 623 548 q 728 738 728 650 q 673 871 728 821 q 515 922 617 922 l 266 922 l 266 548 m 134 0 l 134 1035 l 543 1035 q 781 952 697 1035 q 864 747 864 869 q 812 571 864 639 q 694 484 760 503 q 773 411 749 453 q 814 290 798 369 q 838 192 829 227 q 867 105 846 157 q 920 0 888 53 l 772 0 q 675 281 716 99 q 625 395 658 355 q 518 435 591 435 l 266 435 l 266 0 l 134 0 z "},"S":{"ha":857,"x_min":49,"x_max":806,"o":"m 49 203 l 168 245 q 280 132 209 174 q 445 90 351 90 q 608 138 545 90 q 670 270 670 187 q 652 347 670 313 q 594 404 633 380 q 520 444 555 429 q 427 477 486 458 q 206 568 266 530 q 84 784 84 647 q 181 984 84 909 q 437 1059 278 1059 q 652 1002 562 1059 q 784 856 743 944 l 671 818 q 434 947 589 947 q 277 902 335 947 q 220 784 220 857 q 240 709 220 742 q 302 653 260 677 q 382 614 345 629 q 483 579 420 600 q 509 571 500 574 q 619 528 574 549 q 711 473 665 507 q 782 389 758 438 q 806 274 806 339 q 706 54 806 133 q 442 -24 606 -24 q 200 37 301 -24 q 49 203 99 99 z "},"T":{"ha":779,"x_min":16,"x_max":766,"o":"m 16 922 l 16 1035 l 766 1035 l 766 922 l 457 922 l 457 0 l 326 0 l 326 922 l 16 922 z "},"U":{"ha":1004,"x_min":130,"x_max":875,"o":"m 130 378 l 130 1035 l 263 1035 l 263 381 q 329 161 263 233 q 502 90 395 90 q 677 164 612 90 q 742 381 742 239 l 742 1035 l 875 1035 l 875 378 q 779 81 875 187 q 502 -24 684 -24 q 228 79 326 -24 q 130 378 130 183 z "},"V":{"ha":837,"x_min":-1,"x_max":841,"o":"m -1 1035 l 142 1035 l 350 362 q 383 250 361 323 q 416 134 406 176 l 422 133 q 454 248 434 175 q 487 362 475 320 l 696 1035 l 841 1035 l 498 0 l 342 0 l -1 1035 z "},"W":{"ha":1208,"x_min":16,"x_max":1195,"o":"m 16 1035 l 159 1035 l 290 380 q 330 146 320 205 l 338 146 q 359 253 342 167 q 384 380 376 339 l 536 1035 l 673 1035 l 827 380 q 873 146 841 321 l 879 146 q 920 380 882 163 l 1053 1035 l 1195 1035 l 955 0 l 802 0 l 652 647 q 637 717 647 671 q 621 800 628 762 q 608 871 613 837 l 602 871 q 557 647 598 846 l 408 0 l 256 0 l 16 1035 z "},"X":{"ha":831,"x_min":-1,"x_max":836,"o":"m -1 0 l 336 532 l 16 1035 l 176 1035 l 320 793 q 349 743 331 776 q 383 684 368 711 q 414 631 399 656 l 419 631 q 471 719 437 663 q 515 793 505 774 l 658 1035 l 819 1035 l 496 532 l 836 0 l 678 0 l 522 254 q 419 429 486 315 l 414 429 q 312 254 357 328 l 157 0 l -1 0 z "},"Y":{"ha":850,"x_min":-4,"x_max":854,"o":"m -4 1035 l 151 1035 l 323 723 q 423 536 378 620 l 427 536 q 479 633 445 568 q 529 723 514 697 l 700 1035 l 854 1035 l 492 423 l 492 0 l 361 0 l 361 423 l -4 1035 z "},"Z":{"ha":853,"x_min":57,"x_max":800,"o":"m 57 96 l 624 922 l 100 922 l 100 1035 l 787 1035 l 787 936 l 217 113 l 800 113 l 800 0 l 57 0 l 57 96 z "},"[":{"ha":625,"x_min":195,"x_max":500,"o":"m 195 -176 l 195 1169 l 500 1169 l 500 1063 l 324 1063 l 324 -72 l 500 -72 l 500 -176 l 195 -176 z "},"\\":{"ha":471,"x_min":-19,"x_max":492,"o":"m -19 1100 l 113 1100 l 492 -77 l 361 -77 l -19 1100 z "},"]":{"ha":625,"x_min":125,"x_max":430,"o":"m 125 -72 l 302 -72 l 302 1063 l 125 1063 l 125 1169 l 430 1169 l 430 -176 l 125 -176 l 125 -72 z "},"^":{"ha":716,"x_min":19,"x_max":697,"o":"m 19 663 l 297 1138 l 419 1138 l 697 663 l 564 663 l 407 948 l 359 1036 l 358 1035 l 309 947 l 152 663 l 19 663 z "},"_":{"ha":651,"x_min":8,"x_max":647,"o":"m 8 -19 l 647 -19 l 647 -123 l 8 -123 l 8 -19 z "},"`":{"ha":445,"x_min":52,"x_max":335,"o":"m 232 746 l 52 1157 l 217 1157 l 335 746 l 232 746 z "},"a":{"ha":774,"x_min":54,"x_max":680,"o":"m 182 198 q 222 115 182 149 q 332 81 263 81 q 489 141 425 81 q 553 294 553 201 l 553 387 q 377 354 499 373 q 182 198 182 321 m 54 187 q 373 446 54 397 q 553 481 511 468 l 553 524 q 508 629 553 589 q 380 670 463 670 q 254 640 315 670 q 153 559 194 609 l 73 627 q 209 732 129 693 q 377 772 289 772 q 680 473 680 772 l 680 0 l 557 0 l 557 113 q 469 16 534 57 q 316 -24 404 -24 q 123 35 193 -24 q 54 187 54 94 z "},"b":{"ha":823,"x_min":111,"x_max":768,"o":"m 111 0 l 111 1072 l 237 1072 l 237 631 q 318 728 260 684 q 453 772 376 772 q 680 665 591 772 q 768 374 768 559 q 739 191 768 271 q 663 66 711 111 q 563 -2 616 20 q 453 -24 510 -24 q 320 18 378 -24 q 236 121 262 61 l 236 0 l 111 0 m 235 374 q 292 161 235 240 q 435 83 350 83 q 581 159 524 83 q 637 374 637 236 q 582 586 637 507 q 435 665 526 665 q 292 585 350 665 q 235 374 235 506 z "},"c":{"ha":715,"x_min":56,"x_max":685,"o":"m 56 373 q 148 662 56 552 q 393 772 240 772 q 570 711 498 772 q 666 568 643 650 l 557 537 q 495 627 538 590 q 395 665 452 665 q 242 582 298 665 q 186 373 186 499 q 245 161 186 239 q 395 83 304 83 q 507 124 457 83 q 576 220 556 165 l 685 187 q 578 39 658 102 q 393 -24 499 -24 q 149 83 243 -24 q 56 373 56 191 z "}}}
